<?xml version="1.0" encoding="UTF-8" standalone="no"?>
<!-- Generator: Gravit.io -->
<svg xmlns="http://www.w3.org/2000/svg" xmlns:xlink="http://www.w3.org/1999/xlink" style="isolation:isolate" viewBox="0 0 16 16" width="16pt" height="16pt"><g><circle vector-effect="non-scaling-stroke" cx="7.999999999999997" cy="6.073406174311382" r="3.0593558902773834" fill="rgb(224,224,224)"/><path d=" M 4.31 16.014 Q 4.067 10.918 5.534 9.895 C 7.001 8.873 8.912 8.884 10.429 9.895 Q 11.946 10.907 11.687 16.014 L 4.31 16.014 Z " fill="rgb(224,224,224)"/></g><g><path d=" M 1.549 10.775 C 1.123 10.21 0.786 9.61 0.539 8.977 C 0.295 8.355 0.131 7.705 0.053 7.042 C -0.024 6.388 -0.017 5.726 0.075 5.074 C 0.166 4.422 0.341 3.784 0.595 3.176 C 0.853 2.56 1.19 1.98 1.596 1.45 C 2.016 0.901 2.509 0.414 3.062 0 L 3.448 0.512 C 2.931 0.902 2.483 1.345 2.106 1.84 C 1.735 2.326 1.427 2.857 1.19 3.421 C 0.957 3.979 0.797 4.565 0.713 5.164 C 0.629 5.763 0.622 6.37 0.692 6.971 C 0.764 7.578 0.914 8.173 1.137 8.742 C 1.368 9.331 1.679 9.885 2.061 10.389 L 1.549 10.775 L 1.549 10.775 Z  M 3.085 9.617 C 2.765 9.193 2.512 8.743 2.325 8.267 C 2.14 7.801 2.017 7.313 1.959 6.816 C 1.901 6.325 1.907 5.83 1.976 5.341 C 2.044 4.852 2.175 4.374 2.365 3.918 C 2.559 3.456 2.811 3.021 3.117 2.624 C 3.434 2.213 3.805 1.846 4.22 1.535 L 4.606 2.047 C 4.238 2.323 3.909 2.647 3.63 3.012 C 3.089 3.717 2.741 4.551 2.618 5.431 C 2.557 5.866 2.551 6.308 2.602 6.744 C 2.653 7.186 2.761 7.62 2.925 8.034 C 3.093 8.462 3.319 8.865 3.597 9.231 L 3.085 9.617 L 3.085 9.617 Z  M 4.621 8.459 C 4.408 8.177 4.239 7.877 4.116 7.56 C 3.994 7.25 3.912 6.924 3.873 6.593 C 3.834 6.266 3.838 5.935 3.884 5.609 C 3.929 5.283 4.017 4.964 4.144 4.66 C 4.273 4.352 4.441 4.062 4.644 3.797 C 4.854 3.523 5.101 3.279 5.377 3.072 L 5.763 3.584 C 5.529 3.761 5.325 3.962 5.153 4.188 C 4.98 4.414 4.841 4.654 4.735 4.908 C 4.523 5.416 4.445 5.97 4.509 6.517 C 4.542 6.794 4.611 7.065 4.712 7.324 C 4.816 7.588 4.956 7.839 5.133 8.073 L 4.621 8.459 L 4.621 8.459 Z  M 5.767 5.186 C 5.971 5.032 6.227 4.966 6.48 5.001 C 6.733 5.037 6.961 5.172 7.114 5.376 C 7.268 5.579 7.335 5.836 7.3 6.088 C 7.282 6.211 7.242 6.329 7.18 6.436 C 7.116 6.547 7.031 6.642 6.925 6.722 C 6.721 6.876 6.465 6.943 6.212 6.908 C 6.09 6.891 5.971 6.85 5.864 6.788 C 5.752 6.724 5.655 6.637 5.578 6.533 C 5.424 6.33 5.357 6.073 5.392 5.821 C 5.41 5.698 5.451 5.58 5.513 5.473 C 5.576 5.362 5.66 5.267 5.767 5.186 Z " fill-rule="evenodd" fill="rgb(224,224,224)"/><rect x="1.396" y="2.535" width="6.065" height="6.065" transform="matrix(0.962,-0.274,0.274,0.962,-1.355,1.425)" fill="none"/></g><g><path d=" M 14.451 10.775 C 14.877 10.21 15.214 9.61 15.461 8.977 C 15.705 8.355 15.869 7.705 15.947 7.042 C 16.024 6.388 16.017 5.726 15.925 5.074 C 15.834 4.422 15.659 3.784 15.405 3.176 C 15.147 2.56 14.81 1.98 14.404 1.45 C 13.984 0.901 13.491 0.414 12.938 0 L 12.552 0.512 C 13.069 0.902 13.517 1.345 13.894 1.84 C 14.265 2.326 14.573 2.857 14.81 3.421 C 15.043 3.979 15.203 4.565 15.287 5.164 C 15.371 5.763 15.378 6.37 15.308 6.971 C 15.236 7.578 15.086 8.173 14.863 8.742 C 14.632 9.331 14.321 9.885 13.939 10.389 L 14.451 10.775 L 14.451 10.775 Z  M 12.915 9.617 C 13.235 9.193 13.488 8.743 13.675 8.267 C 13.86 7.801 13.983 7.313 14.041 6.816 C 14.099 6.325 14.093 5.83 14.024 5.341 C 13.956 4.852 13.825 4.374 13.635 3.918 C 13.441 3.456 13.189 3.021 12.883 2.624 C 12.566 2.213 12.195 1.846 11.78 1.535 L 11.394 2.047 C 11.762 2.323 12.091 2.647 12.37 3.012 C 12.911 3.717 13.259 4.551 13.382 5.431 C 13.443 5.866 13.449 6.308 13.398 6.744 C 13.347 7.186 13.239 7.62 13.075 8.034 C 12.907 8.462 12.681 8.865 12.403 9.231 L 12.915 9.617 L 12.915 9.617 Z  M 11.379 8.459 C 11.592 8.177 11.761 7.877 11.884 7.56 C 12.006 7.25 12.088 6.924 12.127 6.593 C 12.166 6.266 12.162 5.935 12.116 5.609 C 12.071 5.283 11.983 4.964 11.856 4.66 C 11.727 4.352 11.559 4.062 11.356 3.797 C 11.146 3.523 10.899 3.279 10.623 3.072 L 10.237 3.584 C 10.471 3.761 10.675 3.962 10.847 4.188 C 11.02 4.414 11.159 4.654 11.265 4.908 C 11.477 5.416 11.555 5.97 11.491 6.517 C 11.458 6.794 11.389 7.065 11.288 7.324 C 11.184 7.588 11.044 7.839 10.867 8.073 L 11.379 8.459 L 11.379 8.459 Z  M 10.233 5.186 C 10.029 5.032 9.773 4.966 9.52 5.001 C 9.267 5.037 9.039 5.172 8.886 5.376 C 8.732 5.579 8.665 5.836 8.7 6.088 C 8.718 6.211 8.758 6.329 8.82 6.436 C 8.884 6.547 8.969 6.642 9.075 6.722 C 9.279 6.876 9.535 6.943 9.788 6.908 C 9.91 6.891 10.029 6.85 10.136 6.788 C 10.248 6.724 10.345 6.637 10.422 6.533 C 10.576 6.33 10.643 6.073 10.608 5.821 C 10.59 5.698 10.549 5.58 10.487 5.473 C 10.424 5.362 10.34 5.267 10.233 5.186 Z " fill-rule="evenodd" fill="rgb(224,224,224)"/><rect x="8.539" y="2.535" width="6.065" height="6.065" transform="matrix(0.962,0.274,-0.274,0.962,1.966,-2.955)" fill="none"/></g></svg>